<?xml version="1.0" encoding="UTF-8"?>
<!DOCTYPE svg PUBLIC "-//W3C//DTD SVG 1.1//EN" "http://www.w3.org/Graphics/SVG/1.1/DTD/svg11.dtd">
<svg xmlns="http://www.w3.org/2000/svg" version="1.1" width="500px" height="500px" style="shape-rendering:geometricPrecision; text-rendering:geometricPrecision; image-rendering:optimizeQuality; fill-rule:evenodd; clip-rule:evenodd" xmlns:xlink="http://www.w3.org/1999/xlink">
<g><path style="opacity:1" fill="#fefefe" d="M -0.5,-0.5 C 166.167,-0.5 332.833,-0.5 499.5,-0.5C 499.5,166.167 499.5,332.833 499.5,499.5C 332.833,499.5 166.167,499.5 -0.5,499.5C -0.5,332.833 -0.5,166.167 -0.5,-0.5 Z"/></g>
<g><path style="opacity:1" fill="#954241" d="M 50.5,219.5 C 40.5772,239.013 30.9105,258.679 21.5,278.5C 18.8333,278.5 16.1667,278.5 13.5,278.5C 11.5589,276.989 11.0589,274.989 12,272.5C 21.9222,253.656 31.5889,234.656 41,215.5C 45.915,211.468 49.0817,212.802 50.5,219.5 Z"/></g>
<g><path style="opacity:1" fill="#954241" d="M 255.5,219.5 C 245.752,239.33 235.752,258.997 225.5,278.5C 222.813,278.664 220.146,278.497 217.5,278C 216.748,277.329 216.414,276.496 216.5,275.5C 216.629,273.784 216.962,272.117 217.5,270.5C 227.466,252.573 236.966,234.24 246,215.5C 250.915,211.468 254.082,212.802 255.5,219.5 Z"/></g>
<g><path style="opacity:1" fill="#954241" d="M 324.5,219.5 C 315.089,239.321 305.423,258.987 295.5,278.5C 294.5,278.5 293.5,278.5 292.5,278.5C 291.167,275.167 289.833,271.833 288.5,268.5C 297.398,250.371 306.565,232.371 316,214.5C 317.523,212.38 319.356,212.047 321.5,213.5C 323.038,215.243 324.038,217.243 324.5,219.5 Z"/></g>
<g><path style="opacity:1" fill="#944040" d="M 140.5,219.5 C 134.824,219.334 129.157,219.501 123.5,220C 122.5,222 121.5,222 120.5,220C 112.5,219.333 104.5,219.333 96.5,220C 96,220.5 95.5,221 95,221.5C 94.5001,240.497 94.3334,259.497 94.5,278.5C 92.1667,278.5 89.8333,278.5 87.5,278.5C 86.8333,276.5 86.1667,274.5 85.5,272.5C 85.174,253.59 85.5073,234.757 86.5,216C 103.833,216.667 121.167,216.667 138.5,216C 139.823,216.816 140.489,217.983 140.5,219.5 Z"/></g>
<g><path style="opacity:1" fill="#934140" d="M 223.5,219.5 C 201.831,219.333 180.164,219.5 158.5,220C 156.675,221.466 156.175,223.299 157,225.5C 162.945,243.169 168.779,260.836 174.5,278.5C 173.143,279.685 171.643,280.685 170,281.5C 168.739,281.241 167.739,280.574 167,279.5C 161.923,264.101 156.756,248.768 151.5,233.5C 151.204,231.597 150.537,229.93 149.5,228.5C 149.663,226.143 149.497,223.81 149,221.5C 148.292,220.619 147.458,219.953 146.5,219.5C 146.511,217.983 147.177,216.816 148.5,216C 173.167,215.333 197.833,215.333 222.5,216C 223.337,217.011 223.67,218.178 223.5,219.5 Z"/></g>
<g><path style="opacity:1" fill="#944040" d="M 414.5,219.5 C 399.83,219.333 385.163,219.5 370.5,220C 370,220.5 369.5,221 369,221.5C 368.5,240.497 368.333,259.497 368.5,278.5C 366.5,278.5 364.5,278.5 362.5,278.5C 360.707,276.574 359.707,274.241 359.5,271.5C 359.5,253.5 359.5,235.5 359.5,217.5C 359.611,216.883 359.944,216.383 360.5,216C 377.833,215.333 395.167,215.333 412.5,216C 413.823,216.816 414.489,217.983 414.5,219.5 Z"/></g>
<g><path style="opacity:1" fill="#92403f" d="M 476.5,219.5 C 462.163,219.333 447.829,219.5 433.5,220C 433,220.5 432.5,221 432,221.5C 431.5,240.497 431.333,259.497 431.5,278.5C 429.167,278.5 426.833,278.5 424.5,278.5C 423.4,277.395 422.733,276.062 422.5,274.5C 422.5,258.833 422.5,243.167 422.5,227.5C 424.09,224.545 423.757,221.878 421.5,219.5C 421.511,217.983 422.177,216.816 423.5,216C 440.833,215.333 458.167,215.333 475.5,216C 476.337,217.011 476.67,218.178 476.5,219.5 Z"/></g>
<g><path style="opacity:1" fill="#293e25" d="M 85.5,272.5 C 86.1667,274.5 86.8333,276.5 87.5,278.5C 87.5,279.5 87.5,280.5 87.5,281.5C 87.3893,282.117 87.056,282.617 86.5,283C 65.1667,283.667 43.8333,283.667 22.5,283C 21.944,282.617 21.6107,282.117 21.5,281.5C 21.5,280.5 21.5,279.5 21.5,278.5C 30.9105,258.679 40.5772,239.013 50.5,219.5C 53.006,216.914 55.506,216.914 58,219.5C 67.1961,237.228 76.3628,254.895 85.5,272.5 Z"/></g>
<g><path style="opacity:1" fill="#293d25" d="M 288.5,268.5 C 289.833,271.833 291.167,275.167 292.5,278.5C 292.5,279.5 292.5,280.5 292.5,281.5C 292.389,282.117 292.056,282.617 291.5,283C 270.167,283.667 248.833,283.667 227.5,283C 225.963,281.89 225.297,280.39 225.5,278.5C 235.752,258.997 245.752,239.33 255.5,219.5C 258.006,216.914 260.506,216.914 263,219.5C 271.019,236.209 279.519,252.543 288.5,268.5 Z"/></g>
<g><path style="opacity:1" fill="#293e26" d="M 357.5,269.5 C 357.833,270.5 358.5,271.167 359.5,271.5C 359.707,274.241 360.707,276.574 362.5,278.5C 362.703,280.39 362.037,281.89 360.5,283C 339.167,283.667 317.833,283.667 296.5,283C 295.944,282.617 295.611,282.117 295.5,281.5C 295.5,280.5 295.5,279.5 295.5,278.5C 305.423,258.987 315.089,239.321 324.5,219.5C 327.006,216.914 329.506,216.914 332,219.5C 340.769,236.037 349.269,252.704 357.5,269.5 Z"/></g>
<g><path style="opacity:1" fill="#d9bdbc" d="M 359.5,217.5 C 359.5,235.5 359.5,253.5 359.5,271.5C 358.5,271.167 357.833,270.5 357.5,269.5C 358.167,252.167 358.833,234.833 359.5,217.5 Z"/></g>
<g><path style="opacity:1" fill="#2a3f27" d="M 140.5,219.5 C 142.5,219.5 144.5,219.5 146.5,219.5C 147.458,219.953 148.292,220.619 149,221.5C 149.497,223.81 149.663,226.143 149.5,228.5C 149.5,245.833 149.5,263.167 149.5,280.5C 149.047,281.458 148.381,282.292 147.5,283C 139.5,283.667 131.5,283.667 123.5,283C 122.5,281 121.5,281 120.5,283C 112.5,283.667 104.5,283.667 96.5,283C 95.1772,282.184 94.5106,281.017 94.5,279.5C 94.5,279.167 94.5,278.833 94.5,278.5C 94.3334,259.497 94.5001,240.497 95,221.5C 95.5,221 96,220.5 96.5,220C 104.5,219.333 112.5,219.333 120.5,220C 121.5,222 122.5,222 123.5,220C 129.157,219.501 134.824,219.334 140.5,219.5 Z"/></g>
<g><path style="opacity:1" fill="#2b3f28" d="M 223.5,219.5 C 225.857,219.337 228.19,219.503 230.5,220C 231.624,220.839 232.291,222.006 232.5,223.5C 227.694,239.251 222.694,254.918 217.5,270.5C 216.962,272.117 216.629,273.784 216.5,275.5C 215.09,278.542 213.757,281.709 212.5,285C 210.833,285.667 209.167,285.667 207.5,285C 206.267,283.333 204.933,281.833 203.5,280.5C 201.486,275.643 198.819,271.143 195.5,267C 193.417,267.559 192.084,269.059 191.5,271.5C 188.31,276.021 184.976,280.521 181.5,285C 176.877,285.55 174.543,283.384 174.5,278.5C 168.779,260.836 162.945,243.169 157,225.5C 156.175,223.299 156.675,221.466 158.5,220C 180.164,219.5 201.831,219.333 223.5,219.5 Z"/></g>
<g><path style="opacity:1" fill="#2d4029" d="M 414.5,219.5 C 416.833,219.5 419.167,219.5 421.5,219.5C 423.757,221.878 424.09,224.545 422.5,227.5C 421.833,227.5 421.5,227.833 421.5,228.5C 415.905,234.839 410.905,241.673 406.5,249C 410.979,256.971 415.646,264.805 420.5,272.5C 420.833,273.5 421.5,274.167 422.5,274.5C 422.733,276.062 423.4,277.395 424.5,278.5C 424.703,280.39 424.037,281.89 422.5,283C 405.167,283.667 387.833,283.667 370.5,283C 368.963,281.89 368.297,280.39 368.5,278.5C 368.333,259.497 368.5,240.497 369,221.5C 369.5,221 370,220.5 370.5,220C 385.163,219.5 399.83,219.333 414.5,219.5 Z"/></g>
<g><path style="opacity:1" fill="#2b4029" d="M 476.5,219.5 C 480.007,218.994 483.174,219.66 486,221.5C 486.667,222.833 486.667,224.167 486,225.5C 480.045,233.244 474.212,241.077 468.5,249C 474.333,258.167 480.167,267.333 486,276.5C 486.667,278.5 486.667,280.5 486,282.5C 468.574,283.658 451.074,283.825 433.5,283C 431.963,281.89 431.297,280.39 431.5,278.5C 431.333,259.497 431.5,240.497 432,221.5C 432.5,221 433,220.5 433.5,220C 447.829,219.5 462.163,219.333 476.5,219.5 Z"/></g>
<g><path style="opacity:1" fill="#e7e7e8" d="M 83.5,278.5 C 64.1667,279.833 44.8333,279.833 25.5,278.5C 34.885,259.397 44.5516,240.397 54.5,221.5C 64.4484,240.397 74.115,259.397 83.5,278.5 Z"/></g>
<g><path style="opacity:1" fill="#e6e7e7" d="M 288.5,278.5 C 269.007,279.497 249.34,279.83 229.5,279.5C 239.102,260.06 248.935,240.727 259,221.5C 269.357,240.213 279.19,259.213 288.5,278.5 Z"/></g>
<g><path style="opacity:1" fill="#e6e6e7" d="M 358.5,279.5 C 338.66,279.83 318.993,279.497 299.5,278.5C 308.898,259.371 318.565,240.371 328.5,221.5C 339.023,240.546 349.023,259.88 358.5,279.5 Z"/></g>
<g><path style="opacity:1" fill="#e7e7e8" d="M 98.5,223.5 C 105.167,223.5 111.833,223.5 118.5,223.5C 118.5,231.833 118.5,240.167 118.5,248.5C 120.833,248.5 123.167,248.5 125.5,248.5C 125.5,240.167 125.5,231.833 125.5,223.5C 132.167,223.5 138.833,223.5 145.5,223.5C 145.5,242.167 145.5,260.833 145.5,279.5C 138.833,279.5 132.167,279.5 125.5,279.5C 125.5,270.5 125.5,261.5 125.5,252.5C 123.167,252.5 120.833,252.5 118.5,252.5C 118.5,261.5 118.5,270.5 118.5,279.5C 111.833,279.5 105.167,279.5 98.5,279.5C 98.5,260.833 98.5,242.167 98.5,223.5 Z"/></g>
<g><path style="opacity:1" fill="#e6e7e7" d="M 160.5,223.5 C 183.167,223.5 205.833,223.5 228.5,223.5C 222.966,243.101 216.633,262.434 209.5,281.5C 204.982,273.783 199.982,266.449 194.5,259.5C 189.803,266.366 185.303,273.366 181,280.5C 180.333,281.833 179.667,281.833 179,280.5C 172.675,261.529 166.509,242.529 160.5,223.5 Z"/></g>
<g><path style="opacity:1" fill="#e7e7e8" d="M 372.5,223.5 C 388.17,223.333 403.837,223.5 419.5,224C 413.307,232.026 407.307,240.193 401.5,248.5C 407.458,258.919 413.791,269.085 420.5,279C 404.503,279.5 388.503,279.667 372.5,279.5C 372.5,260.833 372.5,242.167 372.5,223.5 Z"/></g>
<g><path style="opacity:1" fill="#e7e7e8" d="M 482.5,278.5 C 467.009,279.496 451.342,279.83 435.5,279.5C 435.5,260.833 435.5,242.167 435.5,223.5C 451.17,223.333 466.837,223.5 482.5,224C 476.098,232.065 470.098,240.398 464.5,249C 470.313,258.972 476.313,268.806 482.5,278.5 Z"/></g>
<g><path style="opacity:1" fill="#b47c7b" d="M 422.5,227.5 C 422.5,243.167 422.5,258.833 422.5,274.5C 421.5,274.167 420.833,273.5 420.5,272.5C 421.496,258.01 421.829,243.343 421.5,228.5C 421.5,227.833 421.833,227.5 422.5,227.5 Z"/></g>
<g><path style="opacity:1" fill="#f9faf9" d="M 421.5,228.5 C 421.829,243.343 421.496,258.01 420.5,272.5C 415.646,264.805 410.979,256.971 406.5,249C 410.905,241.673 415.905,234.839 421.5,228.5 Z"/></g>
<g><path style="opacity:1" fill="#cfd2cc" d="M 149.5,228.5 C 150.537,229.93 151.204,231.597 151.5,233.5C 150.833,249.167 150.167,264.833 149.5,280.5C 149.5,263.167 149.5,245.833 149.5,228.5 Z"/></g>
<g><path style="opacity:1" fill="#944543" d="M 203.5,280.5 C 201.932,281.473 200.265,281.64 198.5,281C 196.024,277.855 193.69,274.688 191.5,271.5C 192.084,269.059 193.417,267.559 195.5,267C 198.819,271.143 201.486,275.643 203.5,280.5 Z"/></g>
<g><path style="opacity:1" fill="#bb9e9a" d="M 13.5,278.5 C 16.1667,278.5 18.8333,278.5 21.5,278.5C 21.5,279.5 21.5,280.5 21.5,281.5C 18.9717,280.065 16.305,279.065 13.5,278.5 Z"/></g>
<g><path style="opacity:1" fill="#b49893" d="M 87.5,278.5 C 89.8333,278.5 92.1667,278.5 94.5,278.5C 94.5,278.833 94.5,279.167 94.5,279.5C 91.7892,279.185 89.4559,279.852 87.5,281.5C 87.5,280.5 87.5,279.5 87.5,278.5 Z"/></g>
<g><path style="opacity:1" fill="#5c6c5a" d="M 25.5,278.5 C 44.8333,279.833 64.1667,279.833 83.5,278.5C 84.0431,278.56 84.3764,278.893 84.5,279.5C 64.5,280.833 44.5,280.833 24.5,279.5C 24.6236,278.893 24.9569,278.56 25.5,278.5 Z"/></g>
<g><path style="opacity:1" fill="#5b6b59" d="M 288.5,278.5 C 289.043,278.56 289.376,278.893 289.5,279.5C 269.337,280.828 249.337,280.828 229.5,279.5C 249.34,279.83 269.007,279.497 288.5,278.5 Z"/></g>
<g><path style="opacity:1" fill="#9e9b91" d="M 292.5,278.5 C 293.5,278.5 294.5,278.5 295.5,278.5C 295.5,279.5 295.5,280.5 295.5,281.5C 294.778,281.082 294.278,280.416 294,279.5C 293.722,280.416 293.222,281.082 292.5,281.5C 292.5,280.5 292.5,279.5 292.5,278.5 Z"/></g>
<g><path style="opacity:1" fill="#5b6b59" d="M 299.5,278.5 C 318.993,279.497 338.66,279.83 358.5,279.5C 338.663,280.828 318.663,280.828 298.5,279.5C 298.624,278.893 298.957,278.56 299.5,278.5 Z"/></g>
<g><path style="opacity:1" fill="#586856" d="M 482.5,278.5 C 483.043,278.56 483.376,278.893 483.5,279.5C 467.338,280.827 451.338,280.827 435.5,279.5C 451.342,279.83 467.009,279.496 482.5,278.5 Z"/></g>
</svg>
